<svg version="1.1" viewBox="0.0 0.0 121.76902887139107 119.01312335958005" fill="none" stroke="none" stroke-linecap="square" stroke-miterlimit="10" xmlns:xlink="http://www.w3.org/1999/xlink" xmlns="http://www.w3.org/2000/svg"><clipPath id="p.0"><path d="m0 0l121.76903 0l0 119.01312l-121.76903 0l0 -119.01312z" clip-rule="nonzero"/></clipPath><g clip-path="url(#p.0)"><path fill="#000000" fill-opacity="0.0" d="m0 0l121.76903 0l0 119.01312l-121.76903 0z" fill-rule="evenodd"/><path fill="#373d48" d="m-0.41469815 63.25197l0 0c0 -30.449589 27.15199 -55.133858 60.64567 -55.133858l0 0c33.493675 0 60.645668 24.684269 60.645668 55.133858l0 0c0 30.449593 -27.151993 55.133858 -60.645668 55.133858l0 0c-33.49368 0 -60.64567 -24.684265 -60.64567 -55.133858z" fill-rule="evenodd"/><path fill="#373d48" d="m68.55643 37.89501l0 0c0 -2.6527061 2.1645508 -4.80315 4.834648 -4.80315l0 0c1.2822266 0 2.51194 0.5060463 3.4186096 1.4068108c0.90667725 0.90076447 1.4160385 2.122467 1.4160385 3.3963394l0 0c0 2.6527061 -2.1645432 4.80315 -4.834648 4.80315l0 0c-2.6700974 0 -4.834648 -2.150444 -4.834648 -4.80315z" fill-rule="evenodd"/><path stroke="#efefef" stroke-width="4.0" stroke-linejoin="round" stroke-linecap="butt" d="m68.55643 37.89501l0 0c0 -2.6527061 2.1645508 -4.80315 4.834648 -4.80315l0 0c1.2822266 0 2.51194 0.5060463 3.4186096 1.4068108c0.90667725 0.90076447 1.4160385 2.122467 1.4160385 3.3963394l0 0c0 2.6527061 -2.1645432 4.80315 -4.834648 4.80315l0 0c-2.6700974 0 -4.834648 -2.150444 -4.834648 -4.80315z" fill-rule="evenodd"/><path fill="#373d48" d="m25.296587 75.073494l0 0c0 -4.8879395 4.032963 -8.850395 9.007875 -8.850395l0 0c2.389038 0 4.6802254 0.93244934 6.3695297 2.5922165c1.6893044 1.6597748 2.6383438 3.910904 2.6383438 6.2581787l0 0c0 4.887932 -4.032963 8.850388 -9.007874 8.850388l0 0c-4.9749126 0 -9.007875 -3.9624557 -9.007875 -8.850388z" fill-rule="evenodd"/><path stroke="#efefef" stroke-width="4.0" stroke-linejoin="round" stroke-linecap="butt" d="m25.296587 75.073494l0 0c0 -4.8879395 4.032963 -8.850395 9.007875 -8.850395l0 0c2.389038 0 4.6802254 0.93244934 6.3695297 2.5922165c1.6893044 1.6597748 2.6383438 3.910904 2.6383438 6.2581787l0 0c0 4.887932 -4.032963 8.850388 -9.007874 8.850388l0 0c-4.9749126 0 -9.007875 -3.9624557 -9.007875 -8.850388z" fill-rule="evenodd"/><path fill="#373d48" d="m64.3832 74.18635l0 0c0 -4.887932 4.0329666 -8.850388 9.007874 -8.850388l0 0c2.389038 0 4.680229 0.93244934 6.3695297 2.5922165c1.6893005 1.6597748 2.6383438 3.910904 2.6383438 6.258171l0 0c0 4.8879395 -4.032959 8.850395 -9.007874 8.850395l0 0c-4.974907 0 -9.007874 -3.9624557 -9.007874 -8.850395z" fill-rule="evenodd"/><path stroke="#efefef" stroke-width="4.0" stroke-linejoin="round" stroke-linecap="butt" d="m64.3832 74.18635l0 0c0 -4.887932 4.0329666 -8.850388 9.007874 -8.850388l0 0c2.389038 0 4.680229 0.93244934 6.3695297 2.5922165c1.6893005 1.6597748 2.6383438 3.910904 2.6383438 6.258171l0 0c0 4.8879395 -4.032959 8.850395 -9.007874 8.850395l0 0c-4.974907 0 -9.007874 -3.9624557 -9.007874 -8.850395z" fill-rule="evenodd"/><path fill="#000000" fill-opacity="0.0" d="m55.527557 78.74803l-1.6692886 -10.992126" fill-rule="evenodd"/><path stroke="#efefef" stroke-width="4.0" stroke-linejoin="round" stroke-linecap="butt" d="m55.527557 78.74803l-1.6692886 -10.992126" fill-rule="evenodd"/><path fill="#000000" fill-opacity="0.0" d="m54.842518 69.16798l-12.503937 -8.755901" fill-rule="evenodd"/><path stroke="#efefef" stroke-width="4.0" stroke-linejoin="round" stroke-linecap="butt" d="m54.842518 69.16798l-12.503937 -8.755901" fill-rule="evenodd"/><path fill="#000000" fill-opacity="0.0" d="m43.312336 61.698257c0 -18.833046 14.072311 -19.988277 21.195469 -15.409008" fill-rule="evenodd"/><path stroke="#efefef" stroke-width="4.0" stroke-linejoin="round" stroke-linecap="butt" d="m43.312336 61.698257c0 -18.833046 14.072311 -19.988277 21.195469 -15.409008" fill-rule="evenodd"/><path fill="#000000" fill-opacity="0.0" d="m63.370075 44.874016c2.19376 6.613247 8.046055 11.430695 13.341663 11.884666" fill-rule="evenodd"/><path stroke="#efefef" stroke-width="4.0" stroke-linejoin="round" stroke-linecap="butt" d="m63.370075 44.874016c2.19376 6.613247 8.046055 11.430695 13.341663 11.884666" fill-rule="evenodd"/></g></svg>