<svg version="1.1" viewBox="0.0 0.0 121.76902887139107 119.01312335958005" fill="none" stroke="none" stroke-linecap="square" stroke-miterlimit="10" xmlns:xlink="http://www.w3.org/1999/xlink" xmlns="http://www.w3.org/2000/svg"><clipPath id="p.0"><path d="m0 0l121.76903 0l0 119.01312l-121.76903 0l0 -119.01312z" clip-rule="nonzero"/></clipPath><g clip-path="url(#p.0)"><path fill="#000000" fill-opacity="0.0" d="m0 0l121.76903 0l0 119.01312l-121.76903 0z" fill-rule="evenodd"/><path fill="#373d48" d="m0.23884514 58.37008l0 0c0 -32.69352 27.15199 -59.19685 60.645668 -59.19685l0 0c16.084229 0 31.509697 6.236793 42.882965 17.338356c11.373268 11.1015625 17.762703 26.158512 17.762703 41.858494l0 0c0 32.69352 -27.151993 59.196854 -60.645668 59.196854l0 0c-33.493675 0 -60.645668 -26.503334 -60.645668 -59.196854z" fill-rule="evenodd"/><path fill="#373d48" d="m36.569553 78.5538l0 0c0 -14.663811 11.704052 -26.551178 26.141731 -26.551178l0 0c6.9332237 0 13.58247 2.797348 18.484997 7.776661c4.902527 4.979313 7.6567383 11.732708 7.6567383 18.774517l0 0c0 14.663818 -11.704056 26.551186 -26.141735 26.551186l0 0c-14.437679 0 -26.141731 -11.887367 -26.141731 -26.551186z" fill-rule="evenodd"/><path stroke="#ffffff" stroke-width="1.0" stroke-linejoin="round" stroke-linecap="butt" d="m36.569553 78.5538l0 0c0 -14.663811 11.704052 -26.551178 26.141731 -26.551178l0 0c6.9332237 0 13.58247 2.797348 18.484997 7.776661c4.902527 4.979313 7.6567383 11.732708 7.6567383 18.774517l0 0c0 14.663818 -11.704056 26.551186 -26.141735 26.551186l0 0c-14.437679 0 -26.141731 -11.887367 -26.141731 -26.551186z" fill-rule="evenodd"/><path fill="#ffffff" d="m42.77432 73.24568l15.230564 9.1552734E-5l4.706402 -13.185406l4.7064095 13.185406l15.23056 -9.1552734E-5l-12.321846 8.148933l4.7065964 13.1853485l-12.32172 -8.149086l-12.32172 8.149086l4.7065964 -13.1853485z" fill-rule="evenodd"/><path stroke="#ffffff" stroke-width="1.0" stroke-linejoin="round" stroke-linecap="butt" d="m42.77432 73.24568l15.230564 9.1552734E-5l4.706402 -13.185406l4.7064095 13.185406l15.23056 -9.1552734E-5l-12.321846 8.148933l4.7065964 13.1853485l-12.32172 -8.149086l-12.32172 8.149086l4.7065964 -13.1853485z" fill-rule="evenodd"/><path fill="#000000" fill-opacity="0.0" d="m48.34646 56.24803l-0.40945053 -9.19685" fill-rule="evenodd"/><path stroke="#ffffff" stroke-width="1.0" stroke-linejoin="round" stroke-linecap="butt" d="m48.34646 56.24803l-0.40945053 -9.19685" fill-rule="evenodd"/><path fill="#000000" fill-opacity="0.0" d="m47.372704 46.643044l27.622047 0.5984268" fill-rule="evenodd"/><path stroke="#ffffff" stroke-width="1.0" stroke-linejoin="round" stroke-linecap="butt" d="m47.372704 46.643044l27.622047 0.5984268" fill-rule="evenodd"/><path fill="#000000" fill-opacity="0.0" d="m74.61155 46.643044l-0.22047424 8.251968" fill-rule="evenodd"/><path stroke="#ffffff" stroke-width="1.0" stroke-linejoin="round" stroke-linecap="butt" d="m74.61155 46.643044l-0.22047424 8.251968" fill-rule="evenodd"/><path fill="#373d48" d="m58.151478 31.265547l0.19044113 6.627821l-10.443264 5.547596l-14.00629 -26.204617l13.054081 -6.934492z" fill-rule="evenodd"/><path stroke="#ffffff" stroke-width="1.0" stroke-linejoin="round" stroke-linecap="butt" d="m58.151478 31.265547l0.19044113 6.627821l-10.443264 5.547596l-14.00629 -26.204617l13.054081 -6.934492z" fill-rule="evenodd"/><path fill="#373d48" d="m76.03938 9.545974l-19.089088 33.05326l12.537903 9.403431l19.089088 -33.05326z" fill-rule="evenodd"/><path stroke="#ffffff" stroke-width="1.0" stroke-linejoin="round" stroke-linecap="butt" d="m76.03938 9.545974l-19.089088 33.05326l12.537903 9.403431l19.089088 -33.05326z" fill-rule="evenodd"/></g></svg>