<svg version="1.1" viewBox="0.0 0.0 121.76902887139107 119.01312335958005" fill="none" stroke="none" stroke-linecap="square" stroke-miterlimit="10" xmlns:xlink="http://www.w3.org/1999/xlink" xmlns="http://www.w3.org/2000/svg"><clipPath id="p.0"><path d="m0 0l121.76903 0l0 119.01312l-121.76903 0l0 -119.01312z" clip-rule="nonzero"/></clipPath><g clip-path="url(#p.0)"><path fill="#000000" fill-opacity="0.0" d="m0 0l121.76903 0l0 119.01312l-121.76903 0z" fill-rule="evenodd"/><path fill="#373d48" d="m0 59.19685l0 0c0 -32.69352 27.15199 -59.19685 60.645668 -59.19685l0 0c16.084236 0 31.509697 6.236793 42.882965 17.338356c11.373268 11.1015625 17.762703 26.158512 17.762703 41.858494l0 0c0 32.693516 -27.151985 59.19685 -60.645668 59.19685l0 0c-33.493675 0 -60.645668 -26.503334 -60.645668 -59.19685z" fill-rule="evenodd"/><path fill="#373d48" d="m26.31496 48.90551l34.330708 -28.992125l34.33071 28.992125l-34.33071 28.992126z" fill-rule="evenodd"/><path stroke="#efefef" stroke-width="4.0" stroke-linejoin="round" stroke-linecap="butt" d="m26.31496 48.90551l34.330708 -28.992125l34.33071 28.992125l-34.33071 28.992126z" fill-rule="evenodd"/><path fill="#000000" fill-opacity="0.0" d="m37.49344 58.459316l0.09448624 31.559055" fill-rule="evenodd"/><path stroke="#efefef" stroke-width="4.0" stroke-linejoin="round" stroke-linecap="butt" d="m37.49344 58.459316l0.09448624 31.559055" fill-rule="evenodd"/><path fill="#000000" fill-opacity="0.0" d="m83.391075 58.947506l-0.15747833 30.582676" fill-rule="evenodd"/><path stroke="#efefef" stroke-width="4.0" stroke-linejoin="round" stroke-linecap="butt" d="m83.391075 58.947506l-0.15747833 30.582676" fill-rule="evenodd"/><path fill="#000000" fill-opacity="0.0" d="m85.23622 90.49344l-49.700787 0.15747833" fill-rule="evenodd"/><path stroke="#efefef" stroke-width="4.0" stroke-linejoin="round" stroke-linecap="butt" d="m85.23622 90.49344l-49.700787 0.15747833" fill-rule="evenodd"/><path fill="#000000" fill-opacity="0.0" d="m94.97638 48.90551l0.47244263 25.16536" fill-rule="evenodd"/><path stroke="#efefef" stroke-width="4.0" stroke-linejoin="round" stroke-linecap="butt" d="m94.97638 48.90551l0.47244263 25.16536" fill-rule="evenodd"/><path fill="#efefef" d="m92.40682 74.95801l0 0c0 -1.6264191 1.3184738 -2.9448853 2.9448853 -2.9448853l0 0c0.78102875 0 1.5300751 0.3102646 2.082344 0.86253357c0.5522766 0.5522766 0.86253357 1.3013153 0.86253357 2.0823517l0 0c0 1.6264114 -1.3184662 2.9448776 -2.9448776 2.9448776l0 0c-1.6264114 0 -2.9448853 -1.3184662 -2.9448853 -2.9448776z" fill-rule="evenodd"/><path stroke="#efefef" stroke-width="1.0" stroke-linejoin="round" stroke-linecap="butt" d="m92.40682 74.95801l0 0c0 -1.6264191 1.3184738 -2.9448853 2.9448853 -2.9448853l0 0c0.78102875 0 1.5300751 0.3102646 2.082344 0.86253357c0.5522766 0.5522766 0.86253357 1.3013153 0.86253357 2.0823517l0 0c0 1.6264114 -1.3184662 2.9448776 -2.9448776 2.9448776l0 0c-1.6264114 0 -2.9448853 -1.3184662 -2.9448853 -2.9448776z" fill-rule="evenodd"/></g></svg>