<svg version="1.1" viewBox="0.0 0.0 121.76902887139107 119.01312335958005" fill="none" stroke="none" stroke-linecap="square" stroke-miterlimit="10" xmlns:xlink="http://www.w3.org/1999/xlink" xmlns="http://www.w3.org/2000/svg"><clipPath id="p.0"><path d="m0 0l121.76903 0l0 119.01312l-121.76903 0l0 -119.01312z" clip-rule="nonzero"/></clipPath><g clip-path="url(#p.0)"><path fill="#000000" fill-opacity="0.0" d="m0 0l121.76903 0l0 119.01312l-121.76903 0z" fill-rule="evenodd"/><path fill="#373d48" d="m0 59.19685l0 0c0 -32.69352 27.15199 -59.19685 60.645668 -59.19685l0 0c16.084236 0 31.509697 6.236793 42.882965 17.338356c11.373268 11.1015625 17.762703 26.158512 17.762703 41.858494l0 0c0 32.693516 -27.151985 59.19685 -60.645668 59.19685l0 0c-33.493675 0 -60.645668 -26.503334 -60.645668 -59.19685z" fill-rule="evenodd"/><path fill="#373d48" d="m42.380577 35.120735l0 0c0 -7.2536297 7.847355 -13.133858 17.527561 -13.133858l0 0c9.6802025 0 17.527554 5.880228 17.527554 13.133858l0 0c0 7.253628 -7.847351 13.133858 -17.527554 13.133858l0 0c-9.680206 0 -17.527561 -5.88023 -17.527561 -13.133858z" fill-rule="evenodd"/><path stroke="#efefef" stroke-width="4.0" stroke-linejoin="round" stroke-linecap="butt" d="m42.380577 35.120735l0 0c0 -7.2536297 7.847355 -13.133858 17.527561 -13.133858l0 0c9.6802025 0 17.527554 5.880228 17.527554 13.133858l0 0c0 7.253628 -7.847351 13.133858 -17.527554 13.133858l0 0c-9.680206 0 -17.527561 -5.88023 -17.527561 -13.133858z" fill-rule="evenodd"/><path fill="#373d48" d="m42.50821 84.12231c-8.443497 -5.3585587 -11.310633 -13.738693 -7.2355614 -21.14827c4.0750694 -7.40958 14.268204 -12.350086 25.723595 -12.46796c11.455387 -0.117874146 21.856289 4.6107254 26.247913 11.933182c4.391632 7.32246 1.8858185 15.757885 -6.3237076 21.2878z" fill-rule="evenodd"/><path stroke="#efefef" stroke-width="4.0" stroke-linejoin="round" stroke-linecap="butt" d="m42.50821 84.12231c-8.443497 -5.3585587 -11.310633 -13.738693 -7.2355614 -21.14827c4.0750694 -7.40958 14.268204 -12.350086 25.723595 -12.46796c11.455387 -0.117874146 21.856289 4.6107254 26.247913 11.933182c4.391632 7.32246 1.8858185 15.757885 -6.3237076 21.2878z" fill-rule="evenodd"/></g></svg>