<svg version="1.1" viewBox="0.0 0.0 121.76902887139107 119.01312335958005" fill="none" stroke="none" stroke-linecap="square" stroke-miterlimit="10" xmlns:xlink="http://www.w3.org/1999/xlink" xmlns="http://www.w3.org/2000/svg"><clipPath id="p.0"><path d="m0 0l121.76903 0l0 119.01312l-121.76903 0l0 -119.01312z" clip-rule="nonzero"/></clipPath><g clip-path="url(#p.0)"><path fill="#000000" fill-opacity="0.0" d="m0 0l121.76903 0l0 119.01312l-121.76903 0z" fill-rule="evenodd"/><path fill="#373d48" d="m0 59.19685l0 0c0 -32.69352 27.15199 -59.19685 60.645668 -59.19685l0 0c16.084236 0 31.509697 6.236793 42.882965 17.338356c11.373268 11.1015625 17.762703 26.158512 17.762703 41.858494l0 0c0 32.693516 -27.151985 59.19685 -60.645668 59.19685l0 0c-33.493675 0 -60.645668 -26.503334 -60.645668 -59.19685z" fill-rule="evenodd"/><path fill="#000000" fill-opacity="0.0" d="m37.669292 28.740158l0.40944672 56.09449" fill-rule="evenodd"/><path stroke="#efefef" stroke-width="4.0" stroke-linejoin="round" stroke-linecap="butt" d="m37.669292 28.740158l0.40944672 56.09449" fill-rule="evenodd"/><path fill="#000000" fill-opacity="0.0" d="m90.69292 30.047245l-54.89764 0.31496048" fill-rule="evenodd"/><path stroke="#efefef" stroke-width="4.0" stroke-linejoin="round" stroke-linecap="butt" d="m90.69292 30.047245l-54.89764 0.31496048" fill-rule="evenodd"/><path fill="#000000" fill-opacity="0.0" d="m85.73491 85.74278l-49.700787 0.15747833" fill-rule="evenodd"/><path stroke="#efefef" stroke-width="4.0" stroke-linejoin="round" stroke-linecap="butt" d="m85.73491 85.74278l-49.700787 0.15747833" fill-rule="evenodd"/><path fill="#373d48" d="m67.703415 70.30971l0 0c0 -8.523445 7.304451 -15.433067 16.314957 -15.433067l0 0c4.326996 0 8.4767685 1.6259804 11.536423 4.520241c3.0596466 2.8942642 4.7785416 6.819725 4.7785416 10.912827l0 0c0 8.523453 -7.3044586 15.433075 -16.314964 15.433075l0 0c-9.010506 0 -16.314957 -6.909622 -16.314957 -15.433075z" fill-rule="evenodd"/><path stroke="#efefef" stroke-width="4.0" stroke-linejoin="round" stroke-linecap="butt" d="m67.703415 70.30971l0 0c0 -8.523445 7.304451 -15.433067 16.314957 -15.433067l0 0c4.326996 0 8.4767685 1.6259804 11.536423 4.520241c3.0596466 2.8942642 4.7785416 6.819725 4.7785416 10.912827l0 0c0 8.523453 -7.3044586 15.433075 -16.314964 15.433075l0 0c-9.010506 0 -16.314957 -6.909622 -16.314957 -15.433075z" fill-rule="evenodd"/><path fill="#000000" fill-opacity="0.0" d="m88.97638 54.062992l-0.40944672 -25.322834" fill-rule="evenodd"/><path stroke="#efefef" stroke-width="4.0" stroke-linejoin="round" stroke-linecap="butt" d="m88.97638 54.062992l-0.40944672 -25.322834" fill-rule="evenodd"/><path fill="#000000" fill-opacity="0.0" d="m80.69029 74.485565l11.874016 -10.3622055" fill-rule="evenodd"/><path stroke="#efefef" stroke-width="4.0" stroke-linejoin="round" stroke-linecap="butt" d="m80.69029 74.485565l11.874016 -10.3622055" fill-rule="evenodd"/><path fill="#000000" fill-opacity="0.0" d="m75.08662 68.67979l6.740158 7.464569" fill-rule="evenodd"/><path stroke="#efefef" stroke-width="4.0" stroke-linejoin="round" stroke-linecap="butt" d="m75.08662 68.67979l6.740158 7.464569" fill-rule="evenodd"/><path fill="#000000" fill-opacity="0.0" d="m43.842518 43.17848l7.6220474 0" fill-rule="evenodd"/><path stroke="#efefef" stroke-width="4.0" stroke-linejoin="round" stroke-linecap="butt" d="m43.842518 43.17848l7.6220474 0" fill-rule="evenodd"/><path fill="#000000" fill-opacity="0.0" d="m55.133858 42.792652l16.377953 -0.34645844" fill-rule="evenodd"/><path stroke="#efefef" stroke-width="4.0" stroke-linejoin="round" stroke-linecap="butt" d="m55.133858 42.792652l16.377953 -0.34645844" fill-rule="evenodd"/><path fill="#000000" fill-opacity="0.0" d="m44.0 50.897636l7.307087 0" fill-rule="evenodd"/><path stroke="#efefef" stroke-width="4.0" stroke-linejoin="round" stroke-linecap="butt" d="m44.0 50.897636l7.307087 0" fill-rule="evenodd"/><path fill="#000000" fill-opacity="0.0" d="m55.102364 51.02362l16.44094 -0.25196838" fill-rule="evenodd"/><path stroke="#efefef" stroke-width="4.0" stroke-linejoin="round" stroke-linecap="butt" d="m55.102364 51.02362l16.44094 -0.25196838" fill-rule="evenodd"/></g></svg>