<svg version="1.1" viewBox="0.0 0.0 121.76902887139107 119.01312335958005" fill="none" stroke="none" stroke-linecap="square" stroke-miterlimit="10" xmlns:xlink="http://www.w3.org/1999/xlink" xmlns="http://www.w3.org/2000/svg"><clipPath id="p.0"><path d="m0 0l121.76903 0l0 119.01312l-121.76903 0l0 -119.01312z" clip-rule="nonzero"/></clipPath><g clip-path="url(#p.0)"><path fill="#000000" fill-opacity="0.0" d="m0 0l121.76903 0l0 119.01312l-121.76903 0z" fill-rule="evenodd"/><path fill="#373d48" d="m0.23884514 59.50656l0 0c0 -32.69352 27.15199 -59.19685 60.645668 -59.19685l0 0c16.084229 0 31.509697 6.236793 42.882965 17.338356c11.373268 11.1015625 17.762703 26.158512 17.762703 41.858494l0 0c0 32.69352 -27.151993 59.196854 -60.645668 59.196854l0 0c-33.493675 0 -60.645668 -26.503334 -60.645668 -59.196854z" fill-rule="evenodd"/><path fill="#000000" fill-opacity="0.0" d="m52.1916 85.784775l17.38583 0.15748596" fill-rule="evenodd"/><path stroke="#efefef" stroke-width="4.0" stroke-linejoin="round" stroke-linecap="butt" d="m52.1916 85.784775l17.38583 0.15748596" fill-rule="evenodd"/><path fill="#000000" fill-opacity="0.0" d="m55.136482 92.86877l12.692917 0.31495667" fill-rule="evenodd"/><path stroke="#efefef" stroke-width="4.0" stroke-linejoin="round" stroke-linecap="butt" d="m55.136482 92.86877l12.692917 0.31495667" fill-rule="evenodd"/><path fill="#000000" fill-opacity="0.0" d="m56.884514 100.11286l9.196854 0.15747833" fill-rule="evenodd"/><path stroke="#efefef" stroke-width="4.0" stroke-linejoin="round" stroke-linecap="butt" d="m56.884514 100.11286l9.196854 0.15747833" fill-rule="evenodd"/><path fill="#000000" fill-opacity="0.0" d="m60.947506 20.233595l-0.12598419 -11.559054" fill-rule="evenodd"/><path stroke="#efefef" stroke-width="3.0" stroke-linejoin="round" stroke-linecap="butt" stroke-dasharray="12.0,9.0" d="m60.947506 20.233595l-0.12598419 -11.559054" fill-rule="evenodd"/><path fill="#000000" fill-opacity="0.0" d="m87.30971 34.732285l11.464569 -4.787403" fill-rule="evenodd"/><path stroke="#efefef" stroke-width="3.0" stroke-linejoin="round" stroke-linecap="butt" stroke-dasharray="12.0,9.0" d="m87.30971 34.732285l11.464569 -4.787403" fill-rule="evenodd"/><path fill="#000000" fill-opacity="0.0" d="m90.031494 57.6063l14.236221 9.51181" fill-rule="evenodd"/><path stroke="#efefef" stroke-width="3.0" stroke-linejoin="round" stroke-linecap="butt" stroke-dasharray="12.0,9.0" d="m90.031494 57.6063l14.236221 9.51181" fill-rule="evenodd"/><path fill="#000000" fill-opacity="0.0" d="m23.28084 67.11811l12.220472 -7.7165375" fill-rule="evenodd"/><path stroke="#efefef" stroke-width="3.0" stroke-linejoin="round" stroke-linecap="butt" stroke-dasharray="12.0,9.0" d="m23.28084 67.11811l12.220472 -7.7165375" fill-rule="evenodd"/><path fill="#000000" fill-opacity="0.0" d="m20.713911 33.934383l17.35433 3.1811028" fill-rule="evenodd"/><path stroke="#efefef" stroke-width="3.0" stroke-linejoin="round" stroke-linecap="butt" stroke-dasharray="12.0,9.0" d="m20.713911 33.934383l17.35433 3.1811028" fill-rule="evenodd"/><path fill="#373d48" d="m37.33202 51.527557l0 0c0 -13.49836 10.773369 -24.440943 24.062992 -24.440943l0 0c6.3819046 0 12.5024185 2.5750198 17.015106 7.1585865c4.5126877 4.5835648 7.0478897 10.800217 7.0478897 17.282356l0 0c0 13.49836 -10.773369 24.440948 -24.062996 24.440948l0 0c-13.289623 0 -24.062992 -10.942589 -24.062992 -24.440948z" fill-rule="evenodd"/><path stroke="#efefef" stroke-width="4.0" stroke-linejoin="round" stroke-linecap="butt" d="m37.33202 51.527557l0 0c0 -13.49836 10.773369 -24.440943 24.062992 -24.440943l0 0c6.3819046 0 12.5024185 2.5750198 17.015106 7.1585865c4.5126877 4.5835648 7.0478897 10.800217 7.0478897 17.282356l0 0c0 13.49836 -10.773369 24.440948 -24.062996 24.440948l0 0c-13.289623 0 -24.062992 -10.942589 -24.062992 -24.440948z" fill-rule="evenodd"/></g></svg>