<svg version="1.1" viewBox="0.0 0.0 121.76902887139107 119.01312335958005" fill="none" stroke="none" stroke-linecap="square" stroke-miterlimit="10" xmlns:xlink="http://www.w3.org/1999/xlink" xmlns="http://www.w3.org/2000/svg"><clipPath id="p.0"><path d="m0 0l121.76903 0l0 119.01312l-121.76903 0l0 -119.01312z" clip-rule="nonzero"/></clipPath><g clip-path="url(#p.0)"><path fill="#000000" fill-opacity="0.0" d="m0 0l121.76903 0l0 119.01312l-121.76903 0z" fill-rule="evenodd"/><path fill="#373d48" d="m0 59.19685l0 0c0 -32.69352 27.15199 -59.19685 60.645668 -59.19685l0 0c16.084236 0 31.509697 6.236793 42.882965 17.338356c11.373268 11.1015625 17.762703 26.158512 17.762703 41.858494l0 0c0 32.693516 -27.151985 59.19685 -60.645668 59.19685l0 0c-33.493675 0 -60.645668 -26.503334 -60.645668 -59.19685z" fill-rule="evenodd"/><path fill="#373d48" d="m36.56693 58.23622l0 0c0 -12.489464 10.5618515 -22.614174 23.590553 -22.614174l0 0c6.2566032 0 12.256947 2.382557 16.681034 6.623539c4.4240875 4.2409782 6.9095154 9.992981 6.9095154 15.990635l0 0c0 12.489464 -10.5618515 22.614174 -23.59055 22.614174l0 0c-13.028702 0 -23.590553 -10.12471 -23.590553 -22.614174z" fill-rule="evenodd"/><path stroke="#f3f3f3" stroke-width="4.0" stroke-linejoin="round" stroke-linecap="butt" d="m36.56693 58.23622l0 0c0 -12.489464 10.5618515 -22.614174 23.590553 -22.614174l0 0c6.2566032 0 12.256947 2.382557 16.681034 6.623539c4.4240875 4.2409782 6.9095154 9.992981 6.9095154 15.990635l0 0c0 12.489464 -10.5618515 22.614174 -23.59055 22.614174l0 0c-13.028702 0 -23.590553 -10.12471 -23.590553 -22.614174z" fill-rule="evenodd"/><path fill="#000000" fill-opacity="0.0" d="m60.183727 20.963255l-0.031497955 20.125982" fill-rule="evenodd"/><path stroke="#efefef" stroke-width="4.0" stroke-linejoin="round" stroke-linecap="butt" d="m60.183727 20.963255l-0.031497955 20.125982" fill-rule="evenodd"/><path fill="#000000" fill-opacity="0.0" d="m99.40157 58.377953l-23.685036 -0.28346252" fill-rule="evenodd"/><path stroke="#efefef" stroke-width="4.0" stroke-linejoin="round" stroke-linecap="butt" d="m99.40157 58.377953l-23.685036 -0.28346252" fill-rule="evenodd"/><path fill="#000000" fill-opacity="0.0" d="m43.721786 58.362206l-22.58268 -0.22047424" fill-rule="evenodd"/><path stroke="#efefef" stroke-width="4.0" stroke-linejoin="round" stroke-linecap="butt" d="m43.721786 58.362206l-22.58268 -0.22047424" fill-rule="evenodd"/><path fill="#000000" fill-opacity="0.0" d="m60.157482 75.04724l-0.15748215 21.133858" fill-rule="evenodd"/><path stroke="#efefef" stroke-width="4.0" stroke-linejoin="round" stroke-linecap="butt" d="m60.157482 75.04724l-0.15748215 21.133858" fill-rule="evenodd"/><path fill="#373d48" d="m48.384514 58.362206l0 0c0 -6.383892 5.146965 -11.559055 11.496063 -11.559055l0 0c3.0489464 0 5.973015 1.2178268 8.128944 3.3855667c2.1559296 2.1677437 3.3671188 5.1078377 3.3671188 8.173489l0 0c0 6.3838882 -5.146965 11.5590515 -11.496063 11.5590515l0 0c-6.349098 0 -11.496063 -5.1751633 -11.496063 -11.5590515z" fill-rule="evenodd"/><path stroke="#efefef" stroke-width="4.0" stroke-linejoin="round" stroke-linecap="butt" d="m48.384514 58.362206l0 0c0 -6.383892 5.146965 -11.559055 11.496063 -11.559055l0 0c3.0489464 0 5.973015 1.2178268 8.128944 3.3855667c2.1559296 2.1677437 3.3671188 5.1078377 3.3671188 8.173489l0 0c0 6.3838882 -5.146965 11.5590515 -11.496063 11.5590515l0 0c-6.349098 0 -11.496063 -5.1751633 -11.496063 -11.5590515z" fill-rule="evenodd"/></g></svg>